<svg xmlns="http://www.w3.org/2000/svg" viewBox="0 0 256 256" fill="none">
  <defs>
    <linearGradient id="rocketGrad" x1="0%" y1="0%" x2="100%" y2="100%">
      <stop offset="0%" style="stop-color:#00d4ff"/>
      <stop offset="100%" style="stop-color:#00ffc8"/>
    </linearGradient>
  </defs>
  <path d="M128 16C128 16 80 48 80 112V160L128 240L176 160V112C176 48 128 16 128 16Z" fill="url(#rocketGrad)" opacity="0.9"/>
  <path d="M128 32C128 32 96 56 96 112V152L128 216L160 152V112C160 56 128 32 128 32Z" fill="#1e3a5f"/>
  <circle cx="128" cy="96" r="16" fill="#0a1628" stroke="#00d4ff" stroke-width="2"/>
  <path d="M80 144L48 176L80 160" fill="#00ffc8" opacity="0.8"/>
  <path d="M176 144L208 176L176 160" fill="#00d4ff" opacity="0.8"/>
  <ellipse cx="128" cy="232" rx="24" ry="8" fill="#ff6b35" opacity="0.6"/>
  <ellipse cx="128" cy="240" rx="16" ry="6" fill="#ffd700" opacity="0.8"/>
</svg>
